<?xml version="1.0" encoding="utf-8"?>
<!-- Generator: Adobe Illustrator 26.3.1, SVG Export Plug-In . SVG Version: 6.00 Build 0)  -->
<svg version="1.1" id="Layer_1" xmlns="http://www.w3.org/2000/svg" xmlns:xlink="http://www.w3.org/1999/xlink" x="0px" y="0px"
	 viewBox="0 0 300 56" style="enable-background:new 0 0 300 56;" xml:space="preserve">
<style type="text/css">
	.st0{fill:#FFFFFF;}
	.st1{fill:url(#SVGID_1_);}
	.st2{fill:url(#SVGID_00000058570504255888394770000000699344687080864144_);}
	.st3{fill:url(#SVGID_00000047772941527063661470000002094558729662733965_);}
	.st4{fill:url(#SVGID_00000029031811639208826460000000630974175631155386_);}
	.st5{fill:url(#SVGID_00000006668401162293627290000016822434892448463020_);}
	.st6{fill:url(#SVGID_00000143615392339418597830000002449466430354028174_);}
</style>
<g>
	<path class="st0" d="M11.7,26.3H1V1.5h10.7c3.5,0,6.5,1.2,8.9,3.6c2.4,2.4,3.6,5.3,3.6,8.8c0,3.5-1.2,6.4-3.6,8.8
		C18.2,25.1,15.3,26.3,11.7,26.3z M7.3,6.7v14.4h3.3c2.3,0,4.1-0.7,5.4-2c1.3-1.3,1.9-3.1,1.9-5.2c0-2.1-0.6-3.9-1.9-5.2
		c-1.3-1.3-3.1-2-5.4-2H7.3z"/>
	<path class="st0" d="M49.1,23c-2.5,2.5-5.6,3.7-9.4,3.7c-3.8,0-6.9-1.2-9.4-3.7s-3.8-5.5-3.8-9s1.3-6.6,3.8-9
		c2.5-2.5,5.6-3.7,9.4-3.7c3.8,0,6.9,1.2,9.4,3.7c2.5,2.5,3.8,5.5,3.8,9S51.6,20.5,49.1,23z M34.8,19.1c1.3,1.4,2.9,2.1,4.9,2.1
		c2,0,3.6-0.7,4.9-2.1c1.3-1.4,1.9-3.1,1.9-5.2c0-2.1-0.6-3.8-1.9-5.2c-1.3-1.4-2.9-2.1-4.9-2.1c-2,0-3.6,0.7-4.9,2.1
		c-1.3,1.4-1.9,3.1-1.9,5.2C32.9,16,33.5,17.7,34.8,19.1z"/>
	<path class="st0" d="M80.8,26h-4.1l-5.4-13.3l-1.1,13.6h-6.3l2.3-24.8h6.1l6.4,15.6l6.4-15.6h6.1l2.3,24.8h-6.3l-1.1-13.6L80.8,26z
		"/>
	<path class="st0" d="M104,1.5v24.8h-6.3V1.5H104z"/>
	<path class="st0" d="M115.6,21.1h11.2v5.2h-17.4V1.5h6.3V21.1z"/>
	<path class="st0" d="M140.2,26.3h-6.5l9.6-24.8h5.8l9.7,24.8h-6.6l-1.7-4.4h-8.8L140.2,26.3z M146.2,8.2l-3.1,8.7h6L146.2,8.2z"/>
	<path class="st0" d="M181.5,23c-2.5,2.5-5.6,3.7-9.4,3.7c-3.8,0-6.9-1.2-9.4-3.7s-3.8-5.5-3.8-9s1.3-6.6,3.8-9
		c2.5-2.5,5.6-3.7,9.4-3.7c3.8,0,6.9,1.2,9.4,3.7c2.5,2.5,3.8,5.5,3.8,9S184,20.5,181.5,23z M167.2,19.1c1.3,1.4,2.9,2.1,4.9,2.1
		c2,0,3.6-0.7,4.9-2.1c1.3-1.4,1.9-3.1,1.9-5.2c0-2.1-0.6-3.8-1.9-5.2c-1.3-1.4-2.9-2.1-4.9-2.1c-2,0-3.6,0.7-4.9,2.1
		c-1.3,1.4-1.9,3.1-1.9,5.2C165.3,16,165.9,17.7,167.2,19.1z"/>
</g>
<g>
	<linearGradient id="SVGID_1_" gradientUnits="userSpaceOnUse" x1="51.3855" y1="55.5844" x2="51.3855" y2="30.5962">
		<stop  offset="0" style="stop-color:#FF4F08"/>
		<stop  offset="1" style="stop-color:#FF6E33"/>
	</linearGradient>
	<path class="st1" d="M53.4,55.3h-4.1l-5.5-13.4l-1.1,13.7h-6.3l2.3-25h6.2l6.5,15.8l6.5-15.8H64l2.3,25H60l-1.1-13.7L53.4,55.3z"/>
	
		<linearGradient id="SVGID_00000163038803724953805520000004383724614317880981_" gradientUnits="userSpaceOnUse" x1="73.7315" y1="55.5844" x2="73.7315" y2="30.5962">
		<stop  offset="0" style="stop-color:#FF4F08"/>
		<stop  offset="1" style="stop-color:#FF6E33"/>
	</linearGradient>
	<path style="fill:url(#SVGID_00000163038803724953805520000004383724614317880981_);" d="M76.9,30.6v25h-6.3v-25H76.9z"/>
	
		<linearGradient id="SVGID_00000118356968964689386430000001665529242131825793_" gradientUnits="userSpaceOnUse" x1="90.9554" y1="55.5844" x2="90.9554" y2="30.5962">
		<stop  offset="0" style="stop-color:#FF4F08"/>
		<stop  offset="1" style="stop-color:#FF6E33"/>
	</linearGradient>
	<path style="fill:url(#SVGID_00000118356968964689386430000001665529242131825793_);" d="M88.5,50.4h11.2v5.2H82.2v-25h6.3V50.4z"
		/>
	
		<linearGradient id="SVGID_00000099633781793978761410000014147211212488024510_" gradientUnits="userSpaceOnUse" x1="113.6768" y1="55.5844" x2="113.6768" y2="30.5962">
		<stop  offset="0" style="stop-color:#FF4F08"/>
		<stop  offset="1" style="stop-color:#FF6E33"/>
	</linearGradient>
	<path style="fill:url(#SVGID_00000099633781793978761410000014147211212488024510_);" d="M124.3,55.6H118v-9.4h-8.6v9.4h-6.3v-25
		h6.3v10.5h8.6V30.6h6.3V55.6z"/>
	
		<linearGradient id="SVGID_00000096751627311113229610000006523190390138310585_" gradientUnits="userSpaceOnUse" x1="139.6646" y1="55.5844" x2="139.6646" y2="23.1713">
		<stop  offset="0" style="stop-color:#FF4F08"/>
		<stop  offset="1" style="stop-color:#FF6E33"/>
	</linearGradient>
	<path style="fill:url(#SVGID_00000096751627311113229610000006523190390138310585_);" d="M133.5,55.6H127l9.7-25h5.9l9.8,25h-6.6
		l-1.7-4.4h-8.9L133.5,55.6z M146.9,24.1c-0.5,1.5-1,2.6-1.6,3.4c-0.6,0.8-1.5,1.1-2.7,1.1c-0.8,0-1.8-0.2-3-0.7
		c-1.1-0.5-1.9-0.7-2.2-0.7c-0.4,0-0.8,0.1-1.1,0.3c-0.3,0.2-0.5,0.4-0.6,0.5c-0.1,0.2-0.3,0.5-0.4,0.8l-2.9-0.9
		c0.5-1.5,1-2.6,1.6-3.4c0.6-0.8,1.5-1.1,2.7-1.1c0.8,0,1.8,0.2,3,0.7c1.2,0.5,1.9,0.7,2.2,0.7c0.4,0,0.8-0.1,1.1-0.3
		c0.3-0.2,0.5-0.4,0.6-0.5c0.1-0.1,0.2-0.4,0.5-0.9L146.9,24.1z M139.6,37.3l-3.1,8.8h6.1L139.6,37.3z"/>
	
		<linearGradient id="SVGID_00000139292459634477809100000016332961807313163940_" gradientUnits="userSpaceOnUse" x1="165.7417" y1="55.9768" x2="165.7417" y2="30.2031">
		<stop  offset="0" style="stop-color:#FF4F08"/>
		<stop  offset="1" style="stop-color:#FF6E33"/>
	</linearGradient>
	<path style="fill:url(#SVGID_00000139292459634477809100000016332961807313163940_);" d="M175.2,52.2c-2.5,2.5-5.7,3.8-9.5,3.8
		s-6.9-1.3-9.5-3.8c-2.5-2.5-3.8-5.6-3.8-9.1s1.3-6.6,3.8-9.1c2.5-2.5,5.7-3.8,9.5-3.8s6.9,1.3,9.5,3.8c2.5,2.5,3.8,5.6,3.8,9.1
		S177.7,49.7,175.2,52.2z M160.8,48.3c1.3,1.4,2.9,2.1,4.9,2.1s3.7-0.7,5-2.1c1.3-1.4,2-3.1,2-5.2s-0.7-3.8-2-5.2
		c-1.3-1.4-3-2.1-5-2.1s-3.6,0.7-4.9,2.1s-1.9,3.1-1.9,5.2S159.5,46.9,160.8,48.3z"/>
</g>
<g>
	<path class="st0" d="M213.2,32.7V18.5l-13.1,14.2H213.2z M211.8,31.4h-8.7l8.7-9.4V31.4z"/>
	<path class="st0" d="M228.5,2h-13.7l-27.5,29.6l-0.2,0.2v12h24.5V56h16.8V43.8h9.8V31.4h-9.8V2z M236.9,32.7v9.7h-9.8v12.2H213
		V42.4h-24.5V32.3l26.9-29h11.8v29.4H236.9z"/>
	<path class="st0" d="M246.1,43.9c-1.8,0-3.3,0.6-4.5,1.7c-1.2,1.2-1.8,2.6-1.8,4.4c0,1.7,0.6,3.2,1.8,4.3c1.2,1.1,2.7,1.7,4.5,1.7
		c1.8,0,3.3-0.6,4.5-1.7c1.2-1.1,1.9-2.6,1.9-4.3c0-1.8-0.6-3.2-1.9-4.4C249.4,44.5,247.9,43.9,246.1,43.9z M249.7,53.3
		c-1,0.9-2.2,1.3-3.6,1.3c-1.5,0-2.7-0.4-3.6-1.3c-0.9-0.9-1.4-2-1.4-3.3c0-1.4,0.5-2.5,1.4-3.4c0.9-0.9,2.1-1.4,3.6-1.4
		c1.5,0,2.6,0.4,3.6,1.4c1,0.9,1.4,2,1.4,3.4C251.2,51.3,250.7,52.4,249.7,53.3z"/>
	<path class="st0" d="M291.8,9.7C287.4,4.6,281.4,2,274.2,2c-7.3,0-13.2,2.6-17.6,7.8c-4.3,5.1-6.5,11.6-6.5,19.3
		c0,7.6,2.2,14.1,6.5,19.2c4.3,5.2,10.3,7.8,17.6,7.8c7.3,0,13.2-2.6,17.7-7.8c4.4-5.2,6.7-11.6,6.7-19.2
		C298.5,21.3,296.2,14.9,291.8,9.7z M290.8,47.3c-4.2,4.9-9.8,7.4-16.7,7.4c-6.9,0-12.5-2.5-16.6-7.3c-4.1-4.9-6.2-11.1-6.2-18.4
		c0-7.4,2.1-13.5,6.2-18.4c4.1-4.8,9.7-7.3,16.6-7.3c6.9,0,12.5,2.5,16.7,7.3c4.2,4.9,6.3,11.1,6.3,18.4
		C297.2,36.2,295,42.4,290.8,47.3z"/>
	<path class="st0" d="M274.2,13.9c-2.9,0-5.3,1.5-7,4.3c-1.6,2.8-2.5,6.4-2.5,10.7c0,4.3,0.8,7.9,2.5,10.7c1.7,2.9,4,4.4,7,4.4
		c2.9,0,5.3-1.5,7.1-4.4c1.7-2.8,2.6-6.4,2.6-10.6c0-4.3-0.9-7.9-2.5-10.7C279.5,15.4,277.1,13.9,274.2,13.9z M280.1,38.9
		c-1.5,2.5-3.5,3.8-5.9,3.8c-2.5,0-4.4-1.2-5.8-3.7c-1.5-2.6-2.3-6-2.3-10c0-4.1,0.8-7.5,2.3-10c1.5-2.5,3.4-3.7,5.8-3.7
		c2.5,0,4.5,1.2,6,3.7c1.6,2.6,2.4,5.9,2.4,10C282.5,33,281.7,36.3,280.1,38.9z"/>
</g>
</svg>
